<svg xmlns="http://www.w3.org/2000/svg" viewBox="0 0 171.13 35.76"><defs><style>.a{fill:#0a41f2;}.b{fill:#c0ff40;}.c{fill:none;stroke:#fff;stroke-miterlimit:10;stroke-width:0.87px;}</style></defs><path class="a" d="M163.12,8.15l2.09-6.3h1.08l2.08,6.3h-.8L165.62,2.3h.24l-1.94,5.85Zm1-1.48V5.94h3.24v.73Z" transform="translate(0 0)"/><path class="a" d="M170.11,8.15V1.85h1v6.3Z" transform="translate(0 0)"/><path class="a" d="M48,30.76V5.14h3.14v11.3H64.52V5.14h3.13V30.76H64.52V19.45H51.17V30.76Z" transform="translate(0 0)"/><path class="a" d="M72.94,8.15V4.88h3.13V8.15Zm0,22.61V11.55h3.13V30.76Z" transform="translate(0 0)"/><path class="a" d="M105.92,31.3A9.32,9.32,0,0,1,101,30a8.59,8.59,0,0,1-3.25-3.5,11.39,11.39,0,0,1-1.16-5.26,12,12,0,0,1,1.15-5.45A8.44,8.44,0,0,1,101,12.27,9,9,0,0,1,105.78,11a8.66,8.66,0,0,1,4.89,1.34,8.16,8.16,0,0,1,3,3.81,13.9,13.9,0,0,1,.87,5.88H111.4V20.91a8.68,8.68,0,0,0-1.43-5.3,4.85,4.85,0,0,0-4.08-1.75,5.33,5.33,0,0,0-4.42,1.89,8.43,8.43,0,0,0-1.52,5.4,8.15,8.15,0,0,0,1.52,5.27,5.21,5.21,0,0,0,4.31,1.87,6.06,6.06,0,0,0,3.28-.87,5.9,5.9,0,0,0,2.18-2.51l3,1.05a8.6,8.6,0,0,1-3.33,3.94A9.24,9.24,0,0,1,105.92,31.3Zm-7-9.26V19.5H113V22Z" transform="translate(0 0)"/><path class="a" d="M119,30.76V11.55h2.81v4.64l-.46-.6a6.77,6.77,0,0,1,.87-1.64,5.24,5.24,0,0,1,1.21-1.23,5.33,5.33,0,0,1,1.67-.92,7.38,7.38,0,0,1,1.9-.39,6.35,6.35,0,0,1,1.82.14v3a5.72,5.72,0,0,0-2.17-.14,4.31,4.31,0,0,0-2.18.87,4.61,4.61,0,0,0-1.42,1.6,6.75,6.75,0,0,0-.7,2,12.67,12.67,0,0,0-.19,2.23v9.64Z" transform="translate(0 0)"/><path class="a" d="M132.19,30.76V11.55H135v4.64l-.45-.6a6.77,6.77,0,0,1,.87-1.64,5.41,5.41,0,0,1,1.2-1.23,5.49,5.49,0,0,1,1.68-.92,7.3,7.3,0,0,1,1.9-.39,6.25,6.25,0,0,1,1.81.14v3a5.66,5.66,0,0,0-2.16-.14,4.34,4.34,0,0,0-2.19.87,4.58,4.58,0,0,0-1.41,1.6,6.75,6.75,0,0,0-.7,2,12.67,12.67,0,0,0-.19,2.23v9.64Z" transform="translate(0 0)"/><path class="a" d="M150.5,31.3a7.28,7.28,0,0,1-3.57-.8,5.34,5.34,0,0,1-2.17-2.09,5.64,5.64,0,0,1-.73-2.84,5.7,5.7,0,0,1,.57-2.63,5.14,5.14,0,0,1,1.62-1.85,8.25,8.25,0,0,1,2.48-1.16,28.1,28.1,0,0,1,3-.65c1.12-.19,2.25-.35,3.41-.51l3.22-.44-1.13.65a5.49,5.49,0,0,0-1-3.79A4.7,4.7,0,0,0,152.56,14a5.64,5.64,0,0,0-3,.79,4.29,4.29,0,0,0-1.83,2.57l-3-.91a7,7,0,0,1,2.66-4A8.58,8.58,0,0,1,152.59,11,9.71,9.71,0,0,1,157,12a5.48,5.48,0,0,1,2.67,2.82,6,6,0,0,1,.51,1.93,21.71,21.71,0,0,1,.1,2.18V30.76h-2.78V26.15l.65.43a7.8,7.8,0,0,1-3,3.52A8.72,8.72,0,0,1,150.5,31.3Zm.47-2.66A6.49,6.49,0,0,0,153.9,28a5.46,5.46,0,0,0,2-1.62,5.17,5.17,0,0,0,1-2.19,7.63,7.63,0,0,0,.29-2q0-1.1,0-1.68l1.09.48-3,.41c-1,.13-1.92.27-2.8.42a22.63,22.63,0,0,0-2.38.52,7.59,7.59,0,0,0-1.45.64,3.24,3.24,0,0,0-1.1,1,2.69,2.69,0,0,0-.41,1.52,3,3,0,0,0,.4,1.49,2.89,2.89,0,0,0,1.23,1.16A4.64,4.64,0,0,0,151,28.64Z" transform="translate(0 0)"/><path class="a" d="M87.89,8.15H79.24V4.88h6.05a2.59,2.59,0,0,1,2.6,2.59Z" transform="translate(0 0)"/><path class="a" d="M99.68,8.15H91V7.47a2.59,2.59,0,0,1,2.6-2.59h6.05Z" transform="translate(0 0)"/><rect class="a" x="87.89" y="8.15" width="3.14" height="22.61"/><rect class="b" width="35.76" height="35.76" rx="7.2"/><polygon class="a" points="11.67 15.85 24.09 15.85 17.88 25.78 11.67 15.85"/><path class="c" d="M14,13.27s-4.65.89-4.9,2.36c-.18,1.08,1.71,2.88,8.81,2.88s9-1.78,8.81-2.85c-.2-1.48-4.85-2.39-4.85-2.39" transform="translate(0 0)"/><polygon class="a" points="24.09 15.85 11.67 15.85 17.88 5.92 24.09 15.85"/><rect class="a" x="13.13" y="30.76" width="9.48" height="5"/><path class="a" d="M22.62,30.76H35.41a6.94,6.94,0,0,0,.35-2.2V23.68H29.7A7.08,7.08,0,0,0,22.62,30.76Z" transform="translate(0 0)"/><path class="a" d="M6.07,23.68H0v4.88a6.94,6.94,0,0,0,.35,2.2h12.8A7.08,7.08,0,0,0,6.07,23.68Z" transform="translate(0 0)"/></svg>

